<?xml version="1.0" encoding="UTF-8"?>
<svg xmlns="http://www.w3.org/2000/svg" viewBox="0 0 96.66 103">
  <defs>
    <style>.cls-1{fill:none;stroke:#810c81;stroke-linecap:round;stroke-linejoin:round;stroke-width:3px;}.cls-2{fill:#810c81;}</style>
  </defs>
  <g id="Layer_2" data-name="Layer 2">
    <g id="Layer_1-2" data-name="Layer 1">
      <path class="cls-1" d="M1.5,22.13l25.84,38.3a18.31,18.31,0,0,0,11.27,6.35L74.55,72.3A9.3,9.3,0,0,0,78,54l-22.7-5.1a9.7,9.7,0,0,1-4.23-2.13l-7.73-11,7.85-8.23,17.45,7.77-.85,16.39,14.36,3.61L88,34.89A11.67,11.67,0,0,0,85.62,24L62,5.09A16.35,16.35,0,0,0,51.81,1.5H20.08"></path>
      <path class="cls-2" d="M82.22,55.21a24.53,24.53,0,1,1-34.52,13L74.55,72.3A9.3,9.3,0,0,0,80.3,54.9l1.83.45,0-.15Z"></path>
      <path class="cls-1" d="M82.22,55.21a24.53,24.53,0,1,1-34.52,13L74.55,72.3A9.3,9.3,0,0,0,80.3,54.9l1.83.45,0-.15Z"></path>
    </g>
  </g>
</svg>
