<svg xmlns="http://www.w3.org/2000/svg" viewBox="0 0 1276.09 143.44"><defs><style>.cls-1,.cls-3{fill:none;stroke-linecap:round;}.cls-1{stroke:#f0f0f0;stroke-width:5px;}.cls-2{fill:#810c81;}.cls-3{stroke:#810c81;stroke-linejoin:round;stroke-width:8px;}</style></defs><g id="Layer_2" data-name="Layer 2"><g id="Layer_1-2" data-name="Layer 1"><path class="cls-1" d="M2.5,73.6s420.82-1.79,515.09,0"/><path class="cls-1" d="M758.5,73.6s420.82-1.79,515.09,0"/><path class="cls-2" d="M616.4,98.06a7.92,7.92,0,0,0,1.77,2.77q.75,2.17,1.53,4.5c.52,1.55,1.07,3.12,1.63,4.71q2.53,7.41,5.31,15.27t5.64,14.79l0-.1a3.7,3.7,0,0,0,1.19,2.07,5.49,5.49,0,0,0,2,1.14,5.17,5.17,0,0,0,2.3.18,3.74,3.74,0,0,0,2.19-1.12l-.08,0q3.2-2.7,6.72-6.19t6.9-7.06q3.39-3.57,6.51-7t5.43-6c.21-.32.41-.64.59-1a4.16,4.16,0,0,0,.39-.85,3.82,3.82,0,0,0,0-2.5,3.25,3.25,0,0,0-2-1.86l-.68-.21a4,4,0,0,0-1.9-.1,3.31,3.31,0,0,0-2,1.23q-5.94,6.64-11,12.13T638,133.48a1,1,0,0,0-.35.31c-.1,0-.16-.19-.18-.48-.91-2.44-2-5.28-3.15-8.54s-2.37-6.55-3.53-9.88-2.27-6.54-3.32-9.6-1.92-5.65-2.61-7.74a9.84,9.84,0,0,1-.53-1.52,10.79,10.79,0,0,0-.43-1.32c-.63-1.72-1.51-2.77-2.62-3.12a3.42,3.42,0,0,0-2.23.14,3.29,3.29,0,0,0-2,1.65,14.77,14.77,0,0,0-.77,1.78,4.43,4.43,0,0,0,.06,2.9"/><path class="cls-3" d="M651,4c7.28,34.12-2.43,87.06-10.49,109.36"/></g></g></svg>