<?xml version="1.0" encoding="UTF-8"?>
<svg xmlns="http://www.w3.org/2000/svg" viewBox="0 0 99.71 103">
  <defs>
    <style>.cls-1,.cls-3{fill:none;stroke:#810c81;stroke-width:3px;}.cls-1{stroke-linecap:round;stroke-linejoin:round;}.cls-2{fill:#fff;}.cls-4{fill:#810c81;}</style>
  </defs>
  <g id="Layer_2" data-name="Layer 2">
    <g id="Layer_1-2" data-name="Layer 1">
      <path class="cls-1" d="M70.32,1.57h0a2.89,2.89,0,0,0-2.91,1L55.34,17.69a2.4,2.4,0,0,1-2.09.87L33.84,17a2.91,2.91,0,0,0-2.69,4.44l10.58,17a2.21,2.21,0,0,1,.18,2L34.32,58.83a2.92,2.92,0,0,0,2,4,3,3,0,0,0,1.42,0l18.39-5a2.52,2.52,0,0,1,1.25,0,2.46,2.46,0,0,1,1.11.57L72.85,70.87a2.87,2.87,0,0,0,1.26.65,2.9,2.9,0,0,0,3.55-2.65L78.86,49a2.28,2.28,0,0,1,1.06-1.76L96.84,36.68a2.92,2.92,0,0,0-.47-5.18L78.25,24.35a2.41,2.41,0,0,1-1.5-1.71L72.5,3.77A2.93,2.93,0,0,0,70.32,1.57Z"></path>
      <path class="cls-2" d="M38.08,68.25a1.38,1.38,0,0,0-1,1l-2.17,8.94a1.19,1.19,0,0,1-.73.8l-8.68,3.25a1.37,1.37,0,0,0-.89,1.14,1.41,1.41,0,0,0,.62,1.31l8,5.18a1.08,1.08,0,0,1,.49.84l.41,9.45a1.4,1.4,0,0,0,.82,1.21,1.45,1.45,0,0,0,.85.08,1.48,1.48,0,0,0,.6-.3l6.91-5.88a1.23,1.23,0,0,1,.54-.26,1.18,1.18,0,0,1,.59,0l8.7,2.55a1.43,1.43,0,0,0,.68,0,1.46,1.46,0,0,0,.73-.42,1.36,1.36,0,0,0,.26-1.44L51.27,87a1,1,0,0,1,.1-1l5.17-8a1.38,1.38,0,0,0,0-1.45,1.4,1.4,0,0,0-1.28-.69l-9.24.58a1.16,1.16,0,0,1-1-.44l-5.61-7.28a1.37,1.37,0,0,0-1.38-.5"></path>
      <path class="cls-3" d="M38.08,68.25a1.38,1.38,0,0,0-1,1l-2.17,8.94a1.19,1.19,0,0,1-.73.8l-8.68,3.25a1.37,1.37,0,0,0-.89,1.14,1.41,1.41,0,0,0,.62,1.31l8,5.18a1.08,1.08,0,0,1,.49.84l.41,9.45a1.4,1.4,0,0,0,.82,1.21,1.45,1.45,0,0,0,.85.08,1.48,1.48,0,0,0,.6-.3l6.91-5.88a1.23,1.23,0,0,1,.54-.26,1.18,1.18,0,0,1,.59,0l8.7,2.55a1.43,1.43,0,0,0,.68,0,1.46,1.46,0,0,0,.73-.42,1.36,1.36,0,0,0,.26-1.44L51.27,87a1,1,0,0,1,.1-1l5.17-8a1.38,1.38,0,0,0,0-1.45,1.4,1.4,0,0,0-1.28-.69l-9.24.58a1.16,1.16,0,0,1-1-.44l-5.61-7.28a1.37,1.37,0,0,0-1.38-.5"></path>
      <path class="cls-4" d="M64.77,23.28a1.16,1.16,0,0,0-1.16.43L58.9,29.82a1,1,0,0,1-.83.36l-7.76-.48a1.17,1.17,0,0,0-1,1.8l4.34,6.7a.9.9,0,0,1,.09.81L50.79,46.4A1.17,1.17,0,0,0,51,47.61a1.14,1.14,0,0,0,.61.35,1.22,1.22,0,0,0,.57,0l7.31-2.14a.94.94,0,0,1,.5,0,.92.92,0,0,1,.44.22l5.81,4.94a1.28,1.28,0,0,0,.51.25,1.15,1.15,0,0,0,1.4-1.09l.34-7.93a.92.92,0,0,1,.41-.71l6.69-4.35a1.16,1.16,0,0,0,.52-1.1,1.17,1.17,0,0,0-.75-1L68.1,32.32a1,1,0,0,1-.61-.67l-1.83-7.51a1.17,1.17,0,0,0-.89-.86"></path>
      <path class="cls-3" d="M64.77,23.28a1.16,1.16,0,0,0-1.16.43L58.9,29.82a1,1,0,0,1-.83.36l-7.76-.48a1.17,1.17,0,0,0-1,1.8l4.34,6.7a.9.9,0,0,1,.09.81L50.79,46.4A1.17,1.17,0,0,0,51,47.61a1.14,1.14,0,0,0,.61.35,1.22,1.22,0,0,0,.57,0l7.31-2.14a.94.94,0,0,1,.5,0,.92.92,0,0,1,.44.22l5.81,4.94a1.28,1.28,0,0,0,.51.25,1.15,1.15,0,0,0,1.4-1.09l.34-7.93a.92.92,0,0,1,.41-.71l6.69-4.35a1.16,1.16,0,0,0,.52-1.1,1.17,1.17,0,0,0-.75-1L68.1,32.32a1,1,0,0,1-.61-.67l-1.83-7.51a1.17,1.17,0,0,0-.89-.86"></path>
      <path class="cls-2" d="M11.77,52.2a.87.87,0,0,0-.77.49L8.51,57.88a.76.76,0,0,1-.55.39l-5.73.85a.87.87,0,0,0-.48,1.47L6,64.79a.7.7,0,0,1,.19.58l-1,5.83a.85.85,0,0,0,1.26.9l5-2.69a.77.77,0,0,1,.36-.09.74.74,0,0,1,.36.09l5,2.69a.87.87,0,0,0,.41.11A.84.84,0,0,0,18,72a.86.86,0,0,0,.35-.84l-1-5.83a.64.64,0,0,1,.19-.58l4.19-4.2a.87.87,0,0,0-.48-1.47l-5.73-.85a.74.74,0,0,1-.54-.39l-2.49-5.19a.89.89,0,0,0-.78-.49"></path>
      <path class="cls-3" d="M11.77,52.2a.87.87,0,0,0-.77.49L8.51,57.88a.76.76,0,0,1-.55.39l-5.73.85a.87.87,0,0,0-.48,1.47L6,64.79a.7.7,0,0,1,.19.58l-1,5.83a.85.85,0,0,0,1.26.9l5-2.69a.77.77,0,0,1,.36-.09.74.74,0,0,1,.36.09l5,2.69a.87.87,0,0,0,.41.11A.84.84,0,0,0,18,72a.86.86,0,0,0,.35-.84l-1-5.83a.64.64,0,0,1,.19-.58l4.19-4.2a.87.87,0,0,0-.48-1.47l-5.73-.85a.74.74,0,0,1-.54-.39l-2.49-5.19a.89.89,0,0,0-.78-.49"></path>
    </g>
  </g>
</svg>
